<?xml version="1.0" encoding="utf-8"?>
<!-- Generator: Adobe Illustrator 24.0.1, SVG Export Plug-In . SVG Version: 6.00 Build 0)  -->
<svg version="1.1" xmlns="http://www.w3.org/2000/svg" xmlns:xlink="http://www.w3.org/1999/xlink" x="0px" y="0px"
	 width="566.9" height="566.9" viewBox="0 0 566.9 566.9" style="enable-background:new 0 0 566.9 566.9;" xml:space="preserve">
<g id="Background">
</g>
<g id="Logo">
	<rect fill="none" width="566.9" height="566.9"/>
	<g>
		<g>
			<path fill="#00B4C8" d="M305.1,498.6h-43.6c-31.1,0-56.3-25.2-56.3-56.3v-81.1H124c-31.1,0-56.3-25.2-56.3-56.3v-43.6
				c0-31.1,25.2-56.3,56.3-56.3h18.3c3,0,5.4,2.4,5.4,5.4v17.1c0,3-2.4,5.4-5.4,5.4H124c-15.7,0-28.4,12.7-28.4,28.4v43.6
				c0,15.7,12.7,28.4,28.4,28.4h109v109c0,15.7,12.7,28.4,28.4,28.4h43.6c15.7,0,28.4-12.7,28.4-28.4V335.9h27.9v106.3
				C361.4,473.3,336.2,498.6,305.1,498.6z"/>
			<path fill="#00B4C8" d="M233,172.7l-27.9,28v-76.9c0-31,25.3-56.3,56.3-56.3h43.6c31,0,56.3,25.3,56.3,56.3v36.6h-27.9v-36.6
				c0-15.7-12.7-28.4-28.4-28.4h-43.6c-15.7,0-28.4,12.7-28.4,28.4V172.7z"/>
			<path fill="#00B4C8" d="M442.5,361.1h-18.3c-3,0-5.4-2.4-5.4-5.4v-17.1c0-3,2.4-5.4,5.4-5.4h18.3c15.7,0,28.4-12.7,28.4-28.4v-43.6
				c0-15.7-12.7-28.4-28.4-28.4h-5.9v-27.9h5.9c31.1,0,56.3,25.2,56.3,56.3v43.6C498.8,335.9,473.6,361.1,442.5,361.1z"/>
		</g>
		<path fill="#00287D" d="M303.2,176c0,0-12.9,8.1-24,24.2c-6.8,9.9-15.8,32.9-18.7,40.1c-2.9,7.2-8.6,10.7-16.8,14.6
			c-15.8,7.6-19.3,21.2-14.1,31.5c4.7,9.3,3,17.7,3,17.7c-3.9-9.3-6.5-11.4-6.5-11.4c-15.9,17.6-16.8,30.3-28,49.2
			c-11.8,19.8-24.1,34.6-24.1,34.6c2.9-7.3,5.7-13.8,5.7-13.8s-16.2,5-27,11.5c-8.3,5-12.2,16.9-17.7,27.4
			c-4.7,6-10.2,13.8-14.9,18.6c-8.1,8.5-16.3,12.4-25.6,13.7c-7.1,1-15.3,0.5-17.2,6.2c-2.5,7.9,2.2,11.7,6,22.9
			c4.7,13.8-2.7,20.8,3.5,29.8c3.4,4.9,11,5.5,15.6,5.5c1.7,0,3.3-0.5,4.5-1.5c0.8-0.6,0.6-1.8-0.2-2.3c-1.1-0.6-2.7-1.6-4.3-3
			c-1.8-1.5-3.3-4.2-3.5-7.9c-0.4-7.7,0.2-15.5,6.7-26c3.2-5.3,20.4-18.4,30.4-24.5c7.6-4.6,16.1-10.5,25.3-17.4
			c15.1-10.6,25.4-20.6,31.3-23.3c8.5-4,11.2-9.2,14.7-12.6c3.8-3.7,27.2-13.2,84.5-81.9c0,0-2.8,11.3-9.6,20.4c0,0,14.8,1.7,45.8-3
			c21-3.2,22.5,3.3,25.9,7.4c-5.5-3.1-16.1-5.2-24.4-2.8c-23.1,6.6-20.7,23.9-34.5,34.4c-13.8,10.5-24.5,16.3-31.9,19.1
			c-7.4,2.7-8.6,9.9-2.8,14.7c5.8,4.8,13.9,4.6,19.5,10.5c5.6,5.9,5.2,14.1,17.3,21.2c4.8,2.8,4.8,3.3,7,4.4
			c2.7,1.4,5.5,0.8,6.7-0.2c0.7-0.6,0.6-1.6-0.1-2.1c-2.2-1.6-6.9-5.6-10.3-14.4c-4.6-12-4.5-23.6-4.9-27.4l-8,5.9
			c0,0,3.2-9.8,17.2-17.6c12.2-6.9,34.1-15.8,49.3-25.2c8.9-5.5,25.5-11.8,28-22.1c1.9-7.6-1.7-20.1-22.9-31.8
			c-29.4-16.3-53.7-18-53.7-18c-4.4-0.8-13.3,11.2-13.3,11.2s3.8-12.8,13.1-22c6-5.5,16.2-12.5,20.9-16.6
			c8.8-7.6,12.9-11.7,12.9-11.7s-18.5,0.7-36.4,7.9c-10.6,4.3-17,9-17,9c6.1-6.6,17.3-15.4,36.4-20.1c31.8-7.9,38-9.8,43.2-18.9
			c0,0-3.5-6.8-12.5-13.9c0,0,4-0.5,14.1,6.8c9.2,6.7,21.4,32.4,54.3,32.4c6.3,0,15.7,1,18.3-1.3c2.6-2.3,7.4-13.7,8.2-25.4
			c0.8-11.6,0.2-20.1,2.2-28.5c3.1-13,1.2-25.2-1.4-34.1c-2.7-9.1-3.5-2.9-4.1,8c-0.3,5.2-3.3,13.3-6.9,8.1
			c-1.5-2.2-4.1-5.7-6.5-5.9c-2.5-0.2,0.3,4.9,1,7.9c1.4,6.1,2,13.8,6.2,13.6c0,0,1.3,9.8-2.1,15.6c-3.4,5.8-6.6,8.4-11.7,15.1
			c0,0,6.5,2.9,8.9,12.4c0,0-6.9-7.6-14-8.8c-10.4-1.8-17.1-11.1-24.9-23.8c-7.8-12.7-11-23-30-24.2c-19-1.3-31.5,4.3-31.5,4.3
			s12.1-9.5,37.9-7.4c5,0.4,8.3-3.3,12-7.6c0,0-4,8.1,0,11.5c3,2.5,6.1,4.7,9.4,11c0,0,15.5-14,20.6-31.2c0,0,6.1-17.8-18.3-26.6
			c-22.4-8-32.4,7.3-33.2,18.4c-0.4,6,1.3,12.6-2.4,15.8c-5.4,4.6-10.1,2.4-23.5,3.4c-20.3,1.6-42.3,21.7-42.3,21.7
			c14.2-16.1,24.7-21,24.7-21c-11.7-0.2-19.4,3.3-29.8,4.5c-7.6,0.9-14.7,1.3-24.1,0.4c0,0-24.7-6.3-29.1-2.7
			c-20.5,16.5-28.2,29.5-30.1,35.5c-1.9,6.1-0.4,14.9-8.6,19.2c-8.2,4.3-13.3,6.5-13.3,6.5s-3.4-2.5,2.4-6.2c7.5-4.9,8.1-10,8.1-10
			c-12.1-0.6-12,7.5-16.3,15.1c-4.3,7.6-22.7,12.1-10.6,13c12.1,0.9,29.3-7.6,34.5-14.8c4.9-6.8,11.8-18,22.1-27.7
			c10.3-9.6,25.7-11.8,25.7-11.8s20,13.4,37.5,7.4C292.3,182.7,303.2,176,303.2,176z"/>
	</g>
</g>
</svg>
